<svg width="1279" height="733" viewBox="0 0 1279 733" fill="none" xmlns="http://www.w3.org/2000/svg">
<path d="M25 2V733" stroke="#5AAF21" stroke-opacity="0.5" stroke-width="3"/>
<path d="M74 2V733" stroke="#5AAF21" stroke-opacity="0.5" stroke-width="3"/>
<path d="M124 4V751" stroke="#5AAF21" stroke-opacity="0.5" stroke-width="3"/>
<path d="M174 2V749" stroke="#5AAF21" stroke-opacity="0.5" stroke-width="3"/>
<path d="M224 2V749" stroke="#5AAF21" stroke-opacity="0.5" stroke-width="3"/>
<path d="M274 2V749" stroke="#5AAF21" stroke-opacity="0.5" stroke-width="3"/>
<path d="M324 0V747" stroke="#5AAF21" stroke-opacity="0.5" stroke-width="3"/>
<path d="M374 2V749" stroke="#5AAF21" stroke-opacity="0.5" stroke-width="3"/>
<path d="M424 4V751" stroke="#5AAF21" stroke-opacity="0.5" stroke-width="3"/>
<path d="M474 4V750" stroke="#5AAF21" stroke-opacity="0.5" stroke-width="3"/>
<path d="M524 2V749" stroke="#5AAF21" stroke-opacity="0.5" stroke-width="3"/>
<path d="M574 1V747" stroke="#5AAF21" stroke-opacity="0.5" stroke-width="3"/>
<path d="M624 0V746" stroke="#5AAF21" stroke-opacity="0.5" stroke-width="3"/>
<path d="M674 4V750" stroke="#5AAF21" stroke-opacity="0.5" stroke-width="3"/>
<path d="M724 1V747" stroke="#5AAF21" stroke-opacity="0.5" stroke-width="3"/>
<path d="M774 1V747" stroke="#5AAF21" stroke-opacity="0.5" stroke-width="3"/>
<path d="M799 4V750" stroke="#5AAF21" stroke-opacity="0.5" stroke-width="3"/>
<path d="M849 4V750" stroke="#5AAF21" stroke-opacity="0.5" stroke-width="3"/>
<path d="M899 2V749" stroke="#5AAF21" stroke-opacity="0.5" stroke-width="3"/>
<path d="M949 2V749" stroke="#5AAF21" stroke-opacity="0.5" stroke-width="3"/>
<path d="M999 2V749" stroke="#5AAF21" stroke-opacity="0.5" stroke-width="3"/>
<path d="M1049 2V743" stroke="#5AAF21" stroke-opacity="0.5" stroke-width="3"/>
<path d="M1124 2V743" stroke="#5AAF21" stroke-opacity="0.5" stroke-width="3"/>
<path d="M1149 2V743" stroke="#5AAF21" stroke-opacity="0.5" stroke-width="3"/>
<path d="M1225 7V748" stroke="#5AAF21" stroke-opacity="0.5" stroke-width="3"/>
<path d="M1274 2V743" stroke="#5AAF21" stroke-opacity="0.5" stroke-width="3"/>
<path d="M49 2V733" stroke="#5AAF21" stroke-opacity="0.5" stroke-width="3"/>
<path d="M99 2V749" stroke="#5AAF21" stroke-opacity="0.5" stroke-width="3"/>
<path d="M149 4V751" stroke="#5AAF21" stroke-opacity="0.5" stroke-width="3"/>
<path d="M199 4V751" stroke="#5AAF21" stroke-opacity="0.5" stroke-width="3"/>
<path d="M249 2V749" stroke="#5AAF21" stroke-opacity="0.5" stroke-width="3"/>
<path d="M299 4V751" stroke="#5AAF21" stroke-opacity="0.5" stroke-width="3"/>
<path d="M349 0V747" stroke="#5AAF21" stroke-opacity="0.5" stroke-width="3"/>
<path d="M399 6V753" stroke="#5AAF21" stroke-opacity="0.5" stroke-width="3"/>
<path d="M449 1L449 733" stroke="#5AAF21" stroke-opacity="0.5" stroke-width="3"/>
<path d="M499 5V751" stroke="#5AAF21" stroke-opacity="0.5" stroke-width="3"/>
<path d="M549 1V747" stroke="#5AAF21" stroke-opacity="0.5" stroke-width="3"/>
<path d="M599 0V746" stroke="#5AAF21" stroke-opacity="0.5" stroke-width="3"/>
<path d="M649 1V747" stroke="#5AAF21" stroke-opacity="0.5" stroke-width="3"/>
<path d="M699 5V751" stroke="#5AAF21" stroke-opacity="0.5" stroke-width="3"/>
<path d="M749 2V749" stroke="#5AAF21" stroke-opacity="0.5" stroke-width="3"/>
<path d="M1099 6V747" stroke="#5AAF21" stroke-opacity="0.5" stroke-width="3"/>
<path d="M824 4V750" stroke="#5AAF21" stroke-opacity="0.5" stroke-width="3"/>
<path d="M874 4V750" stroke="#5AAF21" stroke-opacity="0.5" stroke-width="3"/>
<path d="M924 4V750" stroke="#5AAF21" stroke-opacity="0.5" stroke-width="3"/>
<path d="M974 1V747" stroke="#5AAF21" stroke-opacity="0.5" stroke-width="3"/>
<path d="M1024 2V743" stroke="#5AAF21" stroke-opacity="0.5" stroke-width="3"/>
<path d="M1074 1V742" stroke="#5AAF21" stroke-opacity="0.5" stroke-width="3"/>
<path d="M1199 8V749" stroke="#5AAF21" stroke-opacity="0.5" stroke-width="3"/>
<path d="M1174 0V741" stroke="#5AAF21" stroke-opacity="0.5" stroke-width="3"/>
<path d="M1250 2V743" stroke="#5AAF21" stroke-opacity="0.5" stroke-width="3"/>
<path d="M0 26H1280.5" stroke="#5AAF21" stroke-opacity="0.5" stroke-width="3"/>
<path d="M0 51H1280.5" stroke="#5AAF21" stroke-opacity="0.5" stroke-width="3"/>
<path d="M0 76H1280.5" stroke="#5AAF21" stroke-opacity="0.5" stroke-width="3"/>
<path d="M0 101H1280.5" stroke="#5AAF21" stroke-opacity="0.5" stroke-width="3"/>
<path d="M0 126H1280.5" stroke="#5AAF21" stroke-opacity="0.5" stroke-width="3"/>
<path d="M0 151H1280.5" stroke="#5AAF21" stroke-opacity="0.5" stroke-width="3"/>
<path d="M0 176H1280.5" stroke="#5AAF21" stroke-opacity="0.5" stroke-width="3"/>
<path d="M0 201H1280.5" stroke="#5AAF21" stroke-opacity="0.5" stroke-width="3"/>
<path d="M0 226H1280.5" stroke="#5AAF21" stroke-opacity="0.5" stroke-width="3"/>
<path d="M0 251H1280.5" stroke="#5AAF21" stroke-opacity="0.5" stroke-width="3"/>
<path d="M0 276H1280.5" stroke="#5AAF21" stroke-opacity="0.5" stroke-width="3"/>
<path d="M0 301H1280.5" stroke="#5AAF21" stroke-opacity="0.5" stroke-width="3"/>
<path d="M0 326H1280.5" stroke="#5AAF21" stroke-opacity="0.5" stroke-width="3"/>
<path d="M0 351H1280.5" stroke="#5AAF21" stroke-opacity="0.5" stroke-width="3"/>
<path d="M0 376H1280.5" stroke="#5AAF21" stroke-opacity="0.5" stroke-width="3"/>
<path d="M0 401H1280.5" stroke="#5AAF21" stroke-opacity="0.5" stroke-width="3"/>
<path d="M0 426H1280.5" stroke="#5AAF21" stroke-opacity="0.5" stroke-width="3"/>
<path d="M0 451H1280.5" stroke="#5AAF21" stroke-opacity="0.5" stroke-width="3"/>
<path d="M0 476H1280.5" stroke="#5AAF21" stroke-opacity="0.5" stroke-width="3"/>
<path d="M0 501H1280.5" stroke="#5AAF21" stroke-opacity="0.5" stroke-width="3"/>
<path d="M0 526H1280.5" stroke="#5AAF21" stroke-opacity="0.5" stroke-width="3"/>
<path d="M0 551H1280.5" stroke="#5AAF21" stroke-opacity="0.5" stroke-width="3"/>
<path d="M0 576H1280.5" stroke="#5AAF21" stroke-opacity="0.5" stroke-width="3"/>
<path d="M0 601H1280.5" stroke="#5AAF21" stroke-opacity="0.5" stroke-width="3"/>
<path d="M0 626H1280.5" stroke="#5AAF21" stroke-opacity="0.5" stroke-width="3"/>
<path d="M0 651H1280.5" stroke="#5AAF21" stroke-opacity="0.5" stroke-width="3"/>
<path d="M0 676H1280.5" stroke="#5AAF21" stroke-opacity="0.5" stroke-width="3"/>
<path d="M0 701H1280.5" stroke="#5AAF21" stroke-opacity="0.5" stroke-width="3"/>
<path d="M0 726H1280.5" stroke="#5AAF21" stroke-opacity="0.5" stroke-width="3"/>
</svg>
